<?xml version="1.0" encoding="UTF-8" standalone="no" ?>
<!DOCTYPE svg PUBLIC "-//W3C//DTD SVG 1.1//EN" "http://www.w3.org/Graphics/SVG/1.1/DTD/svg11.dtd">
<svg xmlns="http://www.w3.org/2000/svg" xmlns:xlink="http://www.w3.org/1999/xlink" version="1.1" width="50" height="50" viewBox="0 0 50 50" xml:space="preserve">
<desc>Created with Fabric.js 4.6.0</desc>
<defs>
</defs>
<g transform="matrix(1 0 0 1 25 25)" id="LMqXpz30Qke2czUp9Llmd"  >
<g style="" vector-effect="non-scaling-stroke"   >
		<g transform="matrix(0.75 0 0 1.29 -14.11 -0.3)" id="WPFOY_HCBbbqm32KxlxTn"  >
<path style="stroke: rgb(121,121,121); stroke-width: 0; stroke-dasharray: none; stroke-linecap: butt; stroke-dashoffset: 0; stroke-linejoin: miter; stroke-miterlimit: 4; fill: rgb(171,170,170); fill-rule: nonzero; opacity: 1;" vector-effect="non-scaling-stroke"  transform=" translate(0, 0)" d="M -3.0625 -3.0625 L 3.0625 -3.0625 L 3.0625 3.0625 L -3.0625 3.0625 z" stroke-linecap="round" />
</g>
		<g transform="matrix(1 0 0 1 0.08 -5.07)" id="oP8xIlO5MuxaZYZuQICE1"  >
<path style="stroke: rgb(121,121,121); stroke-width: 0.5; stroke-dasharray: none; stroke-linecap: butt; stroke-dashoffset: 0; stroke-linejoin: miter; stroke-miterlimit: 4; fill: rgb(171,170,170); fill-rule: nonzero; opacity: 1;" vector-effect="non-scaling-stroke"  transform=" translate(0, 0)" d="M 15.36786 1.47744 C 15.771090000000001 1.40792 16.09885 1.11354 16.21112 0.7200700000000001 C 16.32339 0.3265900000000001 16.20034 -0.09640999999999988 15.89451 -0.3682599999999999 L 14.91971 -1.23475 L 14.91971 -1.23475 C 14.10847 -1.95586 13.0608 -2.35418 11.97539 -2.35418 L 6.075280000000001 -2.35418 L 6.075280000000001 -2.35418 C 4.536540000000001 -2.35418 3.025790000000001 -2.76557 1.6995000000000013 -3.54574 L 1.6652900000000013 -3.56587 L 1.6652900000000013 -3.56587 C 0.6099500000000013 -4.18666 -0.5921799999999988 -4.51401 -1.816569999999999 -4.51401 L -1.816569999999999 -4.51401 L -1.816569999999999 -4.51401 C -3.733599999999999 -4.51401 -5.6465999999999985 -4.33837 -7.531589999999999 -3.9893 L -7.768869999999999 -3.94536 L -7.768869999999999 -3.94536 C -9.570469999999998 -3.61173 -11.430209999999999 -3.8093 -13.1215 -4.51401 L -13.1215 -4.51401 L -13.1215 -4.51401 L -13.1215 -4.51401 C -14.381599999999999 -3.81396 -15.37346 -2.71516 -15.941289999999999 -1.3902099999999997 L -16.07464 -1.0790499999999996 L -16.07464 -1.0790499999999996 C -16.26072 -0.6448699999999996 -16.301679999999998 -0.1622199999999996 -16.19144 0.2971200000000003 L -16.19144 0.2971200000000003 L -16.19144 0.2971200000000003 C -15.55026 2.9687100000000006 -13.00348 4.7315000000000005 -10.277239999999999 4.390720000000001 L -4.698159999999999 3.693340000000001 L -4.698159999999999 3.693340000000001 L -4.698159999999999 3.693340000000001 C -3.173759999999999 4.524830000000001 -1.386699999999999 4.734060000000001 0.28855000000000164 4.277170000000001 L 2.4292700000000016 3.693340000000001 L 2.6871200000000015 3.693340000000001 L 2.6871200000000015 3.693340000000001 C 4.523620000000001 3.693340000000001 6.352680000000001 3.460090000000001 8.130410000000001 2.999200000000001 L 11.28456 2.181460000000001 z" stroke-linecap="round" />
</g>
		<g transform="matrix(0.52 0 0 1.21 -15.94 2.64)" id="XLoHwIThs7FL8CWRoYyJ5"  >
<path style="stroke: rgb(121,121,121); stroke-width: 0; stroke-dasharray: none; stroke-linecap: butt; stroke-dashoffset: 0; stroke-linejoin: miter; stroke-miterlimit: 4; fill: rgb(171,170,170); fill-rule: nonzero; opacity: 1;" vector-effect="non-scaling-stroke"  transform=" translate(0, 0)" d="M -3.0625 -3.0625 L 3.0625 -3.0625 L 3.0625 3.0625 L -3.0625 3.0625 z" stroke-linecap="round" />
</g>
		<g transform="matrix(1 0 0 1 -2.56 -13.46)" id="zHp0TiE_VbNEcGyAbVxS7"  >
<path style="stroke: rgb(121,121,121); stroke-width: 0.5; stroke-dasharray: none; stroke-linecap: butt; stroke-dashoffset: 0; stroke-linejoin: miter; stroke-miterlimit: 4; fill: rgb(171,170,170); fill-rule: nonzero; opacity: 1;" vector-effect="non-scaling-stroke"  transform=" translate(0, 0)" d="M -12.9812 5.84648 L -13.637889999999999 2.70835 L -13.637889999999999 2.70835 C -13.938069999999998 1.27388 -13.667379999999998 -0.22111000000000036 -12.883289999999999 -1.45926 L -12.883289999999999 -1.45926 L -12.883289999999999 -1.45926 C -12.145269999999998 -2.62467 -10.976809999999999 -3.4514 -9.63223 -3.75954 L -5.731199999999999 -4.65353 L -5.731199999999999 -4.65353 L -5.731199999999999 -4.65353 C -3.8457099999999995 -5.91052 -1.4735999999999994 -6.19241 0.6539700000000002 -5.4123 L 0.7055900000000002 -5.39337 L 0.7055900000000002 -5.39337 C 0.9137300000000002 -5.31705 1.1298500000000002 -5.26459 1.3498100000000002 -5.23698 L 11.31047 -3.98686 L 13.36822 -2.57215 L 13.36822 -2.57215 C 13.63199 -2.39081 13.77923 -2.0827400000000003 13.75468 -1.7635900000000002 C 13.73013 -1.4444400000000002 13.53749 -1.1625200000000002 13.24909 -1.0236600000000002 L 11.8313 -0.3410200000000002 L 10.76548 -0.6279700000000001 L 10.76548 -0.6279700000000001 C 9.68753 -0.9181900000000001 8.5542 -0.9348000000000001 7.46821 -0.6763100000000002 L 2.64607 0.4714799999999999 L -1.7590700000000004 0.4714799999999999 L -1.7590700000000004 0.4714799999999999 C -2.4052400000000005 0.4714799999999999 -3.0495 0.5416399999999999 -3.6805200000000005 0.6807399999999999 C -4.64599 0.8935599999999999 -6.606190000000001 1.32565 -6.606190000000001 1.32565 L -9.627020000000002 4.03398 z" stroke-linecap="round" />
</g>
		<g transform="matrix(1.05 0 0 1.05 -17.26 1.78)" id="uIGjyfj6bRV0GnnqPbbFF"  >
<path style="stroke: rgb(121,121,121); stroke-width: 0.5; stroke-dasharray: none; stroke-linecap: butt; stroke-dashoffset: 0; stroke-linejoin: miter; stroke-miterlimit: 4; fill: rgb(171,170,170); fill-rule: nonzero; opacity: 1;" vector-effect="non-scaling-stroke"  transform=" translate(0, 0)" d="M 1.00706 -5.57292 L -0.8679399999999999 -1.5104199999999999 L -0.8679399999999999 -1.5104199999999999 L -0.8679399999999999 -1.5104199999999999 C -1.2704 0.8372600000000001 -0.7926199999999999 3.25089 0.4738800000000001 5.2682 L 0.6651800000000001 5.57291" stroke-linecap="round" />
</g>
		<g transform="matrix(1 0 0 1 -18.02 1.54)" id="g55pUJPY2F5xortjxwYkR"  >
<path style="stroke: rgb(121,121,121); stroke-width: 0.5; stroke-dasharray: none; stroke-linecap: butt; stroke-dashoffset: 0; stroke-linejoin: miter; stroke-miterlimit: 4; fill: rgb(255,255,255); fill-opacity: 0; fill-rule: nonzero; opacity: 1;" vector-effect="non-scaling-stroke"  transform=" translate(0, 0)" d="M 0 0" stroke-linecap="round" />
</g>
		<g transform="matrix(1 0 0 1 -6.43 13.59)" id="lEzKXME3txtohhdgZuygh"  >
<path style="stroke: rgb(121,121,121); stroke-width: 0.5; stroke-dasharray: none; stroke-linecap: butt; stroke-dashoffset: 0; stroke-linejoin: miter; stroke-miterlimit: 4; fill: rgb(171,170,170); fill-rule: nonzero; opacity: 1;" vector-effect="non-scaling-stroke"  transform=" translate(0, 0)" d="M -10.24155 -5.72526 L -11.09594 -2.2006899999999994 L -10.67496 -0.1943899999999994 L -10.67496 -0.1943899999999994 C -10.39982 1.1168500000000006 -9.566510000000001 2.2429000000000006 -8.39294 2.8892700000000007 L -5.72601 4.35815 L -5.72601 4.35815 C -5.462459999999999 4.50331 -5.16646 4.57943 -4.86557 4.57943 L -4.86557 4.57943 L -4.86557 4.57943 C -3.1806200000000002 4.57943 -1.5188099999999998 4.97173 -0.01173999999999964 5.7252600000000005 L -0.01173999999999964 5.7252600000000005 L 2.6123400000000006 5.7252600000000005 L 2.6123400000000006 5.7252600000000005 C 3.3229900000000008 5.7252600000000005 4.026350000000001 5.58199 4.680390000000001 5.304030000000001 L 5.087610000000001 5.130960000000001 L 5.087610000000001 5.130960000000001 C 5.2945 5.043030000000001 5.52282 5.018400000000001 5.743710000000001 5.06019 L 7.866180000000001 5.461740000000001 L 7.866180000000001 5.461740000000001 C 8.731050000000002 5.625360000000001 9.61861 5.325810000000001 10.207440000000002 4.671550000000001 L 11.044600000000003 3.7413700000000008 L 11.044600000000003 3.7413700000000008 C 11.098760000000002 3.681190000000001 11.111300000000004 3.594280000000001 11.076340000000002 3.5212500000000007 C 10.618860000000002 2.565400000000001 10.535770000000001 2.1730300000000007 8.321600000000002 1.8710900000000006 C 6.029930000000002 1.5585900000000006 3.8644300000000023 2.2877600000000005 3.8644300000000023 2.2877600000000005 L -1.0533999999999981 0.9335900000000004 L -4.699229999999998 -0.31640999999999964 L -6.157559999999998 -2.8164099999999994" stroke-linecap="round" />
</g>
		<g transform="matrix(1 0 0 1 -2.74 6.82)" id="h_CSPPEjerW78_pjtUsyS"  >
<path style="stroke: rgb(121,121,121); stroke-width: 0.5; stroke-dasharray: none; stroke-linecap: butt; stroke-dashoffset: 0; stroke-linejoin: miter; stroke-miterlimit: 4; fill: rgb(171,170,170); fill-rule: nonzero; opacity: 1;" vector-effect="non-scaling-stroke"  transform=" translate(0, 0)" d="M -11.11854 -4.06333 L -8.08399 -3.0890199999999997 C -5.269909999999999 -2.1854999999999998 -2.31367 -1.8071899999999996 0.6372499999999999 -1.9729699999999997 L 5.44396 -2.2430099999999995 L 10.65229 -2.2430099999999995 L 13.316640000000001 -1.0822899999999995 L 13.316640000000001 -1.0822899999999995 C 13.796410000000002 -0.8732799999999995 14.099670000000001 -0.39224999999999954 14.08139 0.13076000000000043 C 14.06311 0.6537600000000005 13.727 1.1124500000000004 13.23381 1.2874500000000004 L 12.07923 1.6971400000000005 L 12.07923 1.6971400000000005 C 10.57909 2.2294500000000004 9.014590000000002 2.5590400000000004 7.427200000000001 2.6771900000000004 L 3.852080000000001 2.9432800000000006 L 3.852080000000001 2.9432800000000006 C 3.171700000000001 2.9939200000000006 2.508330000000001 3.1801300000000006 1.9009800000000008 3.4909500000000007 L 1.7324700000000008 3.5771900000000008 L 1.7324700000000008 3.5771900000000008 C 0.7368400000000008 4.086720000000001 -0.4225499999999991 4.171940000000001 -1.481979999999999 3.813460000000001 L -1.616589999999999 3.767910000000001 L -1.616589999999999 3.767910000000001 C -3.058629999999999 3.279970000000001 -4.611839999999999 3.224100000000001 -6.085209999999998 3.607170000000001 L -7.021909999999998 3.8507100000000007 L -7.021909999999998 3.8507100000000007 C -8.332419999999999 4.191440000000001 -9.715959999999999 4.12133 -10.985309999999998 3.6498600000000008 L -11.22459 3.5609900000000008 L -11.22459 3.5609900000000008 C -12.165519999999999 3.211500000000001 -12.95366 2.542370000000001 -13.451189999999999 1.6706100000000008 C -13.791719999999998 1.0739300000000007 -14.082199999999998 0.44424000000000086 -14.082199999999998 -0.31331999999999915 C -14.082199999999998 -1.6290699999999991 -12.681059999999999 -2.2429999999999994 -12.681059999999999 -2.2429999999999994" stroke-linecap="round" />
</g>
		<g transform="matrix(1 0 0 1 -11.56 1.31)" id="0k7_XHCjV0FyjtJuFy4HN"  >
<path style="stroke: rgb(121,121,121); stroke-width: 0.5; stroke-dasharray: none; stroke-linecap: butt; stroke-dashoffset: 0; stroke-linejoin: miter; stroke-miterlimit: 4; fill: rgb(255,255,255); fill-opacity: 0; fill-rule: nonzero; opacity: 1;" vector-effect="non-scaling-stroke"  transform=" translate(0, 0)" d="M 0 1.875 L 0 0 L 0 -1.875" stroke-linecap="round" />
</g>
		<g transform="matrix(1 0 0 1 -7.1 -18.48)" id="KjQMva63OBBuMxBzIWsZA"  >
<path style="stroke: rgb(121,121,121); stroke-width: 1; stroke-dasharray: none; stroke-linecap: butt; stroke-dashoffset: 0; stroke-linejoin: miter; stroke-miterlimit: 4; fill: rgb(255,255,255); fill-opacity: 0; fill-rule: nonzero; opacity: 1;" vector-effect="non-scaling-stroke"  transform=" translate(0, 0)" d="M 0 0" stroke-linecap="round" />
</g>
		<g transform="matrix(-0.11 0.26 -0.88 -0.37 11.45 -16.01)" id="APZ43IGo7uaGY5KmqRc-P"  >
<path style="stroke: rgb(121,121,121); stroke-width: 0; stroke-dasharray: none; stroke-linecap: butt; stroke-dashoffset: 0; stroke-linejoin: miter; stroke-miterlimit: 4; fill: rgb(242,217,196); fill-rule: nonzero; opacity: 1;" vector-effect="non-scaling-stroke"  transform=" translate(0, 0)" d="M 0 -2.74079 C 0 -2.74079 3.625 -1.11679 3.625 0.8842099999999999 C 3.625 2.88521 2.001 2.7383800000000003 0 2.7383800000000003 C -2.001 2.7383800000000003 -3.625 2.8852100000000003 -3.625 0.8842100000000002 C -3.625 -1.1167899999999997 0 -2.7407899999999996 0 -2.7407899999999996 z" stroke-linecap="round" />
</g>
		<g transform="matrix(-0.02 0.31 -0.96 -0.07 15.86 -4.26)" id="ce4aV1JZk6ifsMAYsdh25"  >
<path style="stroke: rgb(121,121,121); stroke-width: 0; stroke-dasharray: none; stroke-linecap: butt; stroke-dashoffset: 0; stroke-linejoin: miter; stroke-miterlimit: 4; fill: rgb(242,217,196); fill-rule: nonzero; opacity: 1;" vector-effect="non-scaling-stroke"  transform=" translate(0, 0)" d="M 0 -2.74079 C 0 -2.74079 3.625 -1.11679 3.625 0.8842099999999999 C 3.625 2.88521 2.001 2.7383800000000003 0 2.7383800000000003 C -2.001 2.7383800000000003 -3.625 2.8852100000000003 -3.625 0.8842100000000002 C -3.625 -1.1167899999999997 0 -2.7407899999999996 0 -2.7407899999999996 z" stroke-linecap="round" />
</g>
		<g transform="matrix(0.07 0.3 -0.94 0.22 11.82 6.82)" id="eJo3VsjEUAhP_Ylgn28-e"  >
<path style="stroke: rgb(121,121,121); stroke-width: 0; stroke-dasharray: none; stroke-linecap: butt; stroke-dashoffset: 0; stroke-linejoin: miter; stroke-miterlimit: 4; fill: rgb(242,217,196); fill-rule: nonzero; opacity: 1;" vector-effect="non-scaling-stroke"  transform=" translate(0, 0)" d="M 0 -2.74079 C 0 -2.74079 3.625 -1.11679 3.625 0.8842099999999999 C 3.625 2.88521 2.001 2.7383800000000003 0 2.7383800000000003 C -2.001 2.7383800000000003 -3.625 2.8852100000000003 -3.625 0.8842100000000002 C -3.625 -1.1167899999999997 0 -2.7407899999999996 0 -2.7407899999999996 z" stroke-linecap="round" />
</g>
		<g transform="matrix(0.11 0.21 -0.65 0.33 4.38 17.44)" id="Tt4Wid2Nkfo0H1OLE4Js1"  >
<path style="stroke: rgb(121,121,121); stroke-width: 0; stroke-dasharray: none; stroke-linecap: butt; stroke-dashoffset: 0; stroke-linejoin: miter; stroke-miterlimit: 4; fill: rgb(242,217,196); fill-rule: nonzero; opacity: 1;" vector-effect="non-scaling-stroke"  transform=" translate(0, 0)" d="M 0 -2.74079 C 0 -2.74079 3.625 -1.11679 3.625 0.8842099999999999 C 3.625 2.88521 2.001 2.7383800000000003 0 2.7383800000000003 C -2.001 2.7383800000000003 -3.625 2.8852100000000003 -3.625 0.8842100000000002 C -3.625 -1.1167899999999997 0 -2.7407899999999996 0 -2.7407899999999996 z" stroke-linecap="round" />
</g>
</g>
</g>
<g transform="matrix(1 0 0 1 20.81 6.84)" id="NEvpZDkRtgAGYDctC4iL-"  >
<path style="stroke: rgb(121,121,121); stroke-width: 0.5; stroke-dasharray: none; stroke-linecap: butt; stroke-dashoffset: 0; stroke-linejoin: miter; stroke-miterlimit: 4; fill: rgb(255,255,255); fill-opacity: 0; fill-rule: nonzero; opacity: 1;" vector-effect="non-scaling-stroke"  transform=" translate(0, 0)" d="M -0.46965 -1.08379 C -0.46965 -1.08379 0.77259 -1.45646 0.39991999999999994 -0.46267 C 0.02724999999999994 0.5311199999999999 -0.46965 1.15224 -0.46965 1.15224" stroke-linecap="round" />
</g>
<g transform="matrix(1 0 0 1 20.56 19.6)" id="0Ur4y2015vWHS3skSoumK"  >
<path style="stroke: rgb(121,121,121); stroke-width: 0.5; stroke-dasharray: none; stroke-linecap: butt; stroke-dashoffset: 0; stroke-linejoin: miter; stroke-miterlimit: 4; fill: rgb(255,255,255); fill-opacity: 0; fill-rule: nonzero; opacity: 1;" vector-effect="non-scaling-stroke"  transform=" translate(0, 0)" d="M 0.46795 -2.54658 L 0.39132 -2.41067 C -0.45807 -0.9042600000000001 -0.6886500000000001 0.8733299999999997 -0.25170000000000003 2.5465899999999997 L -0.25170000000000003 2.5465899999999997" stroke-linecap="round" />
</g>
<g transform="matrix(1 0 0 1 22.76 19.04)" id="lS6vSbALqC54RI5lH2soC"  >
<path style="stroke: rgb(121,121,121); stroke-width: 0.5; stroke-dasharray: none; stroke-linecap: butt; stroke-dashoffset: 0; stroke-linejoin: miter; stroke-miterlimit: 4; fill: rgb(255,255,255); fill-opacity: 0; fill-rule: nonzero; opacity: 1;" vector-effect="non-scaling-stroke"  transform=" translate(0, 0)" d="M 0.37267 -2.61025 L -0.20881 -0.23345000000000038 C -0.31766 0.21145999999999965 -0.37267 0.6678299999999996 -0.37267 1.1258599999999996 L -0.37267 2.6102399999999997" stroke-linecap="round" />
</g>
<g transform="matrix(1 0 0 1 25.55 20.16)" id="fXR2qt5DixzlBIvUvNm2m"  >
<path style="stroke: rgb(121,121,121); stroke-width: 0.5; stroke-dasharray: none; stroke-linecap: butt; stroke-dashoffset: 0; stroke-linejoin: miter; stroke-miterlimit: 4; fill: rgb(255,255,255); fill-opacity: 0; fill-rule: nonzero; opacity: 1;" vector-effect="non-scaling-stroke"  transform=" translate(0, 0)" d="M 0.31523 -1.98913 L 0.37357 -1.8141100000000001 C 0.7274499999999999 -0.7524700000000002 0.55577 0.4141600000000001 -0.08893999999999996 1.3288499999999999 L -0.55433 1.9891199999999998" stroke-linecap="round" />
</g>
<g transform="matrix(-1 0 0 -1 20.56 33.26)" id="w7FiNXNLJ1muo1MGPI8FU"  >
<path style="stroke: rgb(121,121,121); stroke-width: 0.5; stroke-dasharray: none; stroke-linecap: butt; stroke-dashoffset: 0; stroke-linejoin: miter; stroke-miterlimit: 4; fill: rgb(255,255,255); fill-opacity: 0; fill-rule: nonzero; opacity: 1;" vector-effect="non-scaling-stroke"  transform=" translate(0, 0)" d="M 0.31523 -1.98913 L 0.37357 -1.8141100000000001 C 0.7274499999999999 -0.7524700000000002 0.55577 0.4141600000000001 -0.08893999999999996 1.3288499999999999 L -0.55433 1.9891199999999998" stroke-linecap="round" />
</g>
<g transform="matrix(1 0.02 -0.01 0.57 22.76 34.67)" id="VyDmB9iKWPfe6GvTBodhA"  >
<path style="stroke: rgb(121,121,121); stroke-width: 0.5; stroke-dasharray: none; stroke-linecap: butt; stroke-dashoffset: 0; stroke-linejoin: miter; stroke-miterlimit: 4; fill: rgb(255,255,255); fill-opacity: 0; fill-rule: nonzero; opacity: 1;" vector-effect="non-scaling-stroke"  transform=" translate(0, 0)" d="M 0.33678 -1.98913 L 0.33678 -1.98913 C 0.69465 -0.9155200000000001 0.5512 0.45123 -0.0016799999999999593 1.2356299999999998 L -0.53278 1.9891299999999998" stroke-linecap="round" />
</g>
<g transform="matrix(-0.94 0.34 -0.2 -0.54 18.88 43.21)" id="QkzFx-evPW6xSQZxFpjeZ"  >
<path style="stroke: rgb(121,121,121); stroke-width: 0.5; stroke-dasharray: none; stroke-linecap: butt; stroke-dashoffset: 0; stroke-linejoin: miter; stroke-miterlimit: 4; fill: rgb(255,255,255); fill-opacity: 0; fill-rule: nonzero; opacity: 1;" vector-effect="non-scaling-stroke"  transform=" translate(0, 0)" d="M 0.33678 -1.98913 L 0.33678 -1.98913 C 0.69471 -0.91534 0.55118 0.45125000000000015 -0.0019399999999999973 1.23599 L -0.5327900000000001 1.9891299999999998" stroke-linecap="round" />
</g>
<g transform="matrix(0.96 -0.28 0.11 0.37 20.66 43.59)" id="cKc9YetPr2PYjD49UkiuO"  >
<path style="stroke: rgb(121,121,121); stroke-width: 0.5; stroke-dasharray: none; stroke-linecap: butt; stroke-dashoffset: 0; stroke-linejoin: miter; stroke-miterlimit: 4; fill: rgb(255,255,255); fill-opacity: 0; fill-rule: nonzero; opacity: 1;" vector-effect="non-scaling-stroke"  transform=" translate(0, 0)" d="M 0.34135 -1.98913 L 0.34135 -1.98913 C 0.49314 -1.53376 0.55728 -0.92571 0.5159 -0.33433 C 0.47453 0.25705999999999996 0.33206 0.76861 0.12817 1.05788 L -0.52822 1.9891299999999998" stroke-linecap="round" />
</g>
</svg>