<?xml version="1.0" encoding="UTF-8" standalone="no" ?>
<!DOCTYPE svg PUBLIC "-//W3C//DTD SVG 1.1//EN" "http://www.w3.org/Graphics/SVG/1.1/DTD/svg11.dtd">
<svg xmlns="http://www.w3.org/2000/svg" xmlns:xlink="http://www.w3.org/1999/xlink" version="1.1" width="240" height="150" viewBox="0 0 240 150" xml:space="preserve">
<desc>Created with Fabric.js 4.6.0</desc>
<defs>
</defs>
<g transform="matrix(1 0 0 1 191.63 70.27)" id="K4x6vId_tykojDXoZAkMc"  >
<path style="stroke: rgb(135,135,135); stroke-width: 0.5; stroke-dasharray: none; stroke-linecap: butt; stroke-dashoffset: 0; stroke-linejoin: miter; stroke-miterlimit: 4; fill: rgb(171,170,170); fill-rule: nonzero; opacity: 1;" vector-effect="non-scaling-stroke"  transform=" translate(0, 0)" d="M -17.82433 -2.07154 L -13.02783 -7.013389999999999 C -11.84568 -8.23137 -10.55102 -9.33484 -9.16113 -10.309099999999999 L -5.93684 -12.569189999999999 L -5.93684 -12.569189999999999 C -4.72086 -13.421539999999998 -3.39746 -14.10929 -2.00109 -14.614529999999998 C 0.3428800000000001 -15.462629999999999 0.8189799999999998 -15.657879999999999 5.28323 -16.61338 C 9.24052 -17.46038 11.55501 -17.806649999999998 14.67027 -18.222649999999998 L 14.67027 -18.222649999999998 C 15.61619 -18.348969999999998 16.56093 -17.982219999999998 17.17386 -17.250749999999996 C 17.78679 -16.519279999999995 17.98256 -15.524939999999997 17.69266 -14.615719999999996 L 15.59529 -8.037589999999996 L 15.59529 -8.037589999999996 C 14.96594 -6.063709999999996 14.04038 -4.196889999999996 12.8503 -2.501019999999996 L 9.52954 2.2310700000000043 L 9.52954 2.2310700000000043 C 7.637920000000001 4.926630000000005 5.372310000000001 7.339280000000004 2.8008500000000005 9.396450000000005 L -0.5344699999999993 12.064710000000005 L -0.5344699999999993 12.064710000000005 C -1.6992199999999993 12.996510000000004 -2.9591499999999993 13.802650000000005 -4.293279999999999 14.469720000000006 L -11.84824 18.247200000000007" stroke-linecap="round" />
</g>
<g transform="matrix(1.29 0 0 1 52.16 72.54)" id="G45mMimF0gFeUl78r4n--"  >
<path style="stroke: rgb(135,135,135); stroke-width: 0.5; stroke-dasharray: none; stroke-linecap: butt; stroke-dashoffset: 0; stroke-linejoin: miter; stroke-miterlimit: 4; fill: rgb(171,170,170); fill-rule: nonzero; opacity: 1;" vector-effect="non-scaling-stroke"  transform=" translate(0, 0)" d="M 15.83014 -7.07171 L 8.85803 -11.85259 L 1.3284199999999995 -14.32638 L -6.082210000000001 -14.44223 L -14.223230000000001 -14.14619 L -14.223230000000001 -14.14619 C -14.809420000000001 -14.124870000000001 -15.343010000000001 -13.70447 -15.62555 -13.04133 C -15.908100000000001 -12.37819 -15.89732 -11.571530000000001 -15.597240000000001 -10.92135 L -13.452720000000001 -6.274900000000001 L -9.29223 -2.1477500000000003 L -7.87503 0.49800999999999984 L -2.62446 5.89002 L 2.2843299999999997 9.66136 L 6.57376 11.59137 L 9.45564 14.44224" stroke-linecap="round" />
</g>
<g transform="matrix(1 0 0 1 168.48 59.93)" id="gQOGIb9QAv4YWdOzmx_jJ"  >
<path style="stroke: rgb(178,155,137); stroke-width: 0.5; stroke-dasharray: none; stroke-linecap: butt; stroke-dashoffset: 0; stroke-linejoin: miter; stroke-miterlimit: 4; fill: rgb(242,217,196); fill-rule: nonzero; opacity: 1;" vector-effect="non-scaling-stroke"  transform=" translate(0, 0)" d="M -12.75989 6.2639 L -4.1941500000000005 0.08859999999999957 L 1.383539999999999 -4.49307 L 4.689689999999999 -11.93191 L 4.689689999999999 -11.93191 C 5.139919999999999 -12.94494 5.713029999999999 -13.89875 6.396119999999999 -14.77186 L 8.040679999999998 -16.87393 L 8.040679999999998 -16.87393 C 8.35006 -17.26938 8.845199999999998 -17.47218 9.343089999999998 -17.40738 C 9.840989999999998 -17.342579999999998 10.267709999999997 -17.0198 10.465569999999998 -16.55832 L 11.795139999999998 -13.457209999999998 C 11.795139999999998 -13.457209999999998 12.339739999999999 -12.326369999999997 12.513029999999999 -10.515559999999997 C 12.863349999999999 -6.854989999999997 12.738119999999999 -2.102629999999998 12.738119999999999 -2.102629999999998 L 11.144489999999998 5.666290000000002 L 6.762019999999998 17.41928" stroke-linecap="round" />
</g>
<g transform="matrix(1 0 0 1 72.83 62.13)" id="3bzjgq2QS5ysM18gKatuS"  >
<path style="stroke: rgb(178,155,137); stroke-width: 0.5; stroke-dasharray: none; stroke-linecap: butt; stroke-dashoffset: 0; stroke-linejoin: miter; stroke-miterlimit: 4; fill: rgb(242,217,196); fill-rule: nonzero; opacity: 1;" vector-effect="non-scaling-stroke"  transform=" translate(0, 0)" d="M -6.67331 19.29479 L -8.86455 16.50595 L -7.071719999999999 -0.8247300000000024 L 0.23111000000000104 -16.320990000000002 L 0.23111000000000104 -16.320990000000002 C 0.788400000000001 -17.50352 1.756220000000001 -18.44339 2.9545700000000013 -18.9658 C 3.5091400000000013 -19.20756 4.221340000000001 -19.41009 4.770250000000001 -19.219170000000002 C 5.91567 -18.820760000000003 5.6772800000000005 -16.561790000000002 5.6772800000000005 -16.561790000000002 L 5.6772800000000005 -6.4024300000000025 C 5.6772800000000005 -6.4024300000000025 8.067720000000001 3.1593199999999975 8.86453 6.346569999999998" stroke-linecap="round" />
</g>
<g transform="matrix(1 0 0 1 190.7 68.32)" id="c9aZkYK2-aT259SemhwY-"  >
<path style="stroke: rgb(135,135,135); stroke-width: 0.5; stroke-dasharray: none; stroke-linecap: butt; stroke-dashoffset: 0; stroke-linejoin: miter; stroke-miterlimit: 4; fill: rgb(255,255,255); fill-opacity: 0; fill-rule: nonzero; opacity: 1;" vector-effect="non-scaling-stroke"  transform=" translate(0, 0)" d="M 13.07867 -12.4502 L 9.21678 -11.05992 C 5.19217 -9.61106 1.49906 -7.36966 -1.6440400000000004 -4.4683399999999995 L -3.7841900000000006 -2.4928099999999995 L -3.7841900000000006 -2.4928099999999995 C -6.082520000000001 -0.37126999999999954 -8.16659 1.9712000000000005 -10.00628 4.50079 L -11.92713 7.14196 L -11.92713 7.14196 C -12.99457 8.60969 -13.34295 10.480640000000001 -12.87533 12.234210000000001 L -12.81773 12.45021" stroke-linecap="round" />
</g>
<g transform="matrix(1 0 0 1 37.67 60.44)" id="gfkfCzXwco0JJwJsrlyr1"  >
<path style="stroke: rgb(0,0,0); stroke-width: 0.7; stroke-dasharray: none; stroke-linecap: butt; stroke-dashoffset: 0; stroke-linejoin: miter; stroke-miterlimit: 4; fill: rgb(255,255,255); fill-opacity: 0; fill-rule: nonzero; opacity: 1;" vector-effect="non-scaling-stroke"  transform=" translate(0, 0)" d="M 0 0" stroke-linecap="round" />
</g>
<g transform="matrix(1 0 0 1 49.13 64.82)" id="N64kbD0sf2t_yj4Mcu5xD"  >
<path style="stroke: rgb(135,135,135); stroke-width: 0.5; stroke-dasharray: none; stroke-linecap: butt; stroke-dashoffset: 0; stroke-linejoin: miter; stroke-miterlimit: 4; fill: rgb(255,255,255); fill-opacity: 0; fill-rule: nonzero; opacity: 1;" vector-effect="non-scaling-stroke"  transform=" translate(0, 0)" d="M -12.251 -4.78088 L -0.2988099999999996 -1.9920399999999998 L 6.69577 0.5559700000000003 L 12.250990000000002 4.78087" stroke-linecap="round" />
</g>
<g transform="matrix(1 0 0 1 75.1 48.86)" id="HOwyFulqKaDwo_xawt1Uk"  >
<path style="stroke: rgb(178,155,137); stroke-width: 0.5; stroke-dasharray: none; stroke-linecap: butt; stroke-dashoffset: 0; stroke-linejoin: miter; stroke-miterlimit: 4; fill: rgb(255,255,255); fill-opacity: 0; fill-rule: nonzero; opacity: 1;" vector-effect="non-scaling-stroke"  transform=" translate(0, 0)" d="M -3.15615 -0.86669 L -2.5947199999999997 -0.38010999999999995 C -1.3797299999999997 0.6728800000000001 0.2604500000000005 1.09171 1.8315400000000004 0.75017 L 3.15613 0.46222" stroke-linecap="round" />
</g>
<g transform="matrix(1 0 0 1 73.78 54.66)" id="Iv8zgjgotRIz19leayO4d"  >
<path style="stroke: rgb(178,155,137); stroke-width: 0.5; stroke-dasharray: none; stroke-linecap: butt; stroke-dashoffset: 0; stroke-linejoin: miter; stroke-miterlimit: 4; fill: rgb(255,255,255); fill-opacity: 0; fill-rule: nonzero; opacity: 1;" vector-effect="non-scaling-stroke"  transform=" translate(0, 0)" d="M -4.31894 -1.14905 L -2.8051099999999995 0.08954000000000018 C -1.4844099999999996 1.1701100000000002 0.31921000000000044 1.4475200000000001 1.9035800000000003 0.8137700000000002 L 4.31893 -0.15236999999999978" stroke-linecap="round" />
</g>
<g transform="matrix(1 0 0 1 72.94 60.57)" id="oxmiz2JkHw2IGJrk0C45G"  >
<path style="stroke: rgb(178,155,137); stroke-width: 0.5; stroke-dasharray: none; stroke-linecap: butt; stroke-dashoffset: 0; stroke-linejoin: miter; stroke-miterlimit: 4; fill: rgb(255,255,255); fill-opacity: 0; fill-rule: nonzero; opacity: 1;" vector-effect="non-scaling-stroke"  transform=" translate(0, 0)" d="M -5.98007 -1.41196 L -4.06053 0.5075799999999999 C -3.48146 1.08665 -2.6960800000000003 1.4119599999999999 -1.87716 1.4119599999999999 L 0.36111000000000004 1.4119599999999999 L 0.36111000000000004 1.4119599999999999 C 1.641 1.4119599999999999 2.8912 1.0263099999999998 3.94868 0.3052999999999999 L 5.98006 -1.07973" stroke-linecap="round" />
</g>
<g transform="matrix(1 0 0 1 73.03 67.49)" id="mA15NnDFbqYvEOgZ-6Vym"  >
<path style="stroke: rgb(178,155,137); stroke-width: 0.5; stroke-dasharray: none; stroke-linecap: butt; stroke-dashoffset: 0; stroke-linejoin: miter; stroke-miterlimit: 4; fill: rgb(255,255,255); fill-opacity: 0; fill-rule: nonzero; opacity: 1;" vector-effect="non-scaling-stroke"  transform=" translate(0, 0)" d="M -7.72425 0.30897 L -6.88472 0.6937500000000001 C -4.82408 1.63821 -2.54849 2.01488 -0.29341999999999935 1.7847700000000002 L 1.6818500000000007 1.5832100000000002 L 1.6818500000000007 1.5832100000000002 C 3.4453000000000005 1.4032700000000002 5.099200000000001 0.6433000000000002 6.384340000000001 -0.5775799999999998 L 7.7242500000000005 -1.8504999999999998" stroke-linecap="round" />
</g>
<g transform="matrix(1 0 0 1 73.69 74.69)" id="SbYryV4bF6mVnCAuV_G6q"  >
<path style="stroke: rgb(178,155,137); stroke-width: 0.5; stroke-dasharray: none; stroke-linecap: butt; stroke-dashoffset: 0; stroke-linejoin: miter; stroke-miterlimit: 4; fill: rgb(255,255,255); fill-opacity: 0; fill-rule: nonzero; opacity: 1;" vector-effect="non-scaling-stroke"  transform=" translate(0, 0)" d="M -9.05316 -0.07485 L -8.0473 0.4640000000000001 C -5.68385 1.73014 -2.9675700000000003 2.17777 -0.3228200000000001 1.73698 L 3.46792 1.10519 L 3.46792 1.10519 C 4.19412 0.9841599999999999 4.88896 0.7198099999999998 5.51197 0.32753999999999994 L 9.05316 -1.9021" stroke-linecap="round" />
</g>
<g transform="matrix(1.05 0 0 1 177.3 48.6)" id="MAwr3DfMURDeFo_6RsWZi"  >
<path style="stroke: rgb(178,155,137); stroke-width: 0.5; stroke-dasharray: none; stroke-linecap: butt; stroke-dashoffset: 0; stroke-linejoin: miter; stroke-miterlimit: 4; fill: rgb(255,255,255); fill-opacity: 0; fill-rule: nonzero; opacity: 1;" vector-effect="non-scaling-stroke"  transform=" translate(0, 0)" d="M -3.08765 -1.12088 L -2.6946 -0.54917 C -1.64391 0.97911 0.2785200000000003 1.5376499999999997 1.93003 0.7944699999999999 L 3.08765 0.2735399999999999" stroke-linecap="round" />
</g>
<g transform="matrix(1 0 0 1 170.18 65.21)" id="xlJ9nPe7kfDnk-t6h0Y9y"  >
<path style="stroke: rgb(178,155,137); stroke-width: 0.5; stroke-dasharray: none; stroke-linecap: butt; stroke-dashoffset: 0; stroke-linejoin: miter; stroke-miterlimit: 4; fill: rgb(255,255,255); fill-opacity: 0; fill-rule: nonzero; opacity: 1;" vector-effect="non-scaling-stroke"  transform=" translate(0, 0)" d="M -7.56972 -3.78486 L -5.90593 -1.4359700000000002 C -4.77696 0.15786999999999973 -3.2525199999999996 1.43037 -1.4825799999999996 2.25634 L -1.0042299999999995 2.47957 L -1.0042299999999995 2.47957 C 0.8380800000000004 3.33931 2.8464100000000006 3.78486 4.87945 3.78486 L 7.569710000000001 3.78486" stroke-linecap="round" />
</g>
<g transform="matrix(1 0 0 1 127.01 86.86)" id="WaFpRPQQDxmyTEcsInLWl"  >
<path style="stroke: rgb(159,159,159); stroke-width: 0.5; stroke-dasharray: none; stroke-linecap: butt; stroke-dashoffset: 0; stroke-linejoin: miter; stroke-miterlimit: 4; fill: rgb(201,201,201); fill-rule: nonzero; opacity: 1;" vector-effect="non-scaling-stroke"  transform=" translate(0, 0)" d="M -7.79353 -23.22685 L -16.54365 -27.0769 L -16.54365 -27.0769 C -17.34768 -27.43067 -18.1897 -27.690859999999997 -19.05315 -27.852349999999998 L -20.90692 -28.199049999999996 L -20.90692 -28.199049999999996 C -22.0799 -28.418429999999997 -23.283 -28.422629999999995 -24.45749 -28.211459999999995 L -27.57764 -27.650469999999995 L -27.57764 -27.650469999999995 C -28.43177 -27.496899999999997 -29.24999 -27.186169999999994 -29.99075 -26.734059999999996 L -35.08437 -23.625249999999994 L -28.90907 -22.430029999999995 L -34.28756 -20.238789999999995 L -42.8533 -17.848349999999996 L -50.94719 -17.679729999999996 L -50.94719 -17.679729999999996 C -51.89886 -17.659899999999997 -52.81713 -17.325259999999997 -53.55841 -16.728109999999997 L -59.58637 -11.872249999999998 L -54.805490000000006 -12.669059999999998 L -58.102970000000006 -7.877819999999998 L -62.972820000000006 -4.7009399999999975 L -70.48941 -0.7636799999999972 L -70.48941 -0.7636799999999972 C -71.04081000000001 -0.4748499999999973 -71.48240000000001 -0.013309999999997268 -71.7466 0.5503100000000027 L -73.44847 4.180970000000003 L -73.44847 4.180970000000003 C -74.02988 5.421300000000003 -74.38813 6.754400000000003 -74.5068 8.119080000000004 L -74.72581 10.637700000000004 L -69.74573 7.649650000000005 L -71.81849 12.535440000000005 L -71.81849 12.535440000000005 C -72.29467 13.657860000000005 -72.65653 14.825410000000005 -72.8986 16.020390000000006 L -73.13553 17.190020000000008 L -73.13553 17.190020000000008 C -73.26429 17.82568000000001 -73.54671 18.420150000000007 -73.95811 18.921540000000007 L -78.11227000000001 23.984310000000008 L -74.72582000000001 22.589890000000008 L -75.72184000000001 28.366780000000006 L 77.11621 27.927900000000005 L 76.54635999999999 25.363580000000006 L 76.54635999999999 25.363580000000006 C 76.13793 23.525640000000006 75.21386 21.842280000000006 73.88252999999999 20.510960000000004 L 71.53851999999999 18.166950000000003 L 78.11223 18.166950000000003 L 74.0778 15.015190000000004 L 74.0778 15.015190000000004 C 73.75083 14.759760000000004 73.48442 14.435150000000004 73.29766 14.064640000000004 L 71.34692 10.194610000000004 L 71.34692 10.194610000000004 C 70.56138 8.636190000000004 69.34752 7.334220000000004 67.84787 6.441570000000004 L 61.77757 2.828300000000004 L 60.38315 -1.3549699999999962 L 66.35925 -0.15974999999999628 L 60.18395 -6.7334599999999964 L 55.190690000000004 -9.784889999999997 L 55.190690000000004 -9.784889999999997 C 53.753820000000005 -10.662979999999997 52.15265 -11.238149999999997 50.48546 -11.475109999999997 L 45.412530000000004 -12.196119999999997 L 37.47478 -16.096009999999996 L 42.255660000000006 -19.482459999999996 L 34.930200000000006 -20.278399999999998 L 29.414080000000006 -22.928929999999998 L 29.414080000000006 -22.928929999999998 C 28.951590000000007 -23.151159999999997 28.441830000000007 -23.257089999999998 27.929090000000006 -23.237509999999997 L 23.023430000000005 -23.050199999999997 L 23.023430000000005 -23.050199999999997 C 22.607170000000004 -23.034309999999998 22.197840000000006 -22.938529999999997 21.817740000000004 -22.768079999999998 L 17.156060000000004 -20.67768 L 11.179960000000005 -21.47449 L 15.960840000000005 -25.06015 L 8.285610000000005 -26.42464 L 8.285610000000005 -26.42464 C 7.435140000000006 -26.57583 6.5628700000000055 -26.55326 5.721360000000006 -26.35828 z" stroke-linecap="round" />
</g>
<g transform="matrix(1 0 0 1 176.15 53.88)" id="vO2YHoXb9JZdGyxo-4Swx"  >
<path style="stroke: rgb(178,155,137); stroke-width: 0.5; stroke-dasharray: none; stroke-linecap: butt; stroke-dashoffset: 0; stroke-linejoin: miter; stroke-miterlimit: 4; fill: rgb(255,255,255); fill-opacity: 0; fill-rule: nonzero; opacity: 1;" vector-effect="non-scaling-stroke"  transform=" translate(0, 0)" d="M -4.98008 -1.21716 L -4.98008 -1.21716 C -2.54004 1.1008799999999999 1.0034999999999998 1.8345399999999998 4.16336 0.6759299999999999 L 4.98008 0.3764699999999999" stroke-linecap="round" />
</g>
<g transform="matrix(1 0 0 1 168.99 56.44)" id="66ld_icUg0VZiWZh-xEt0"  >
<path style="stroke: rgb(0,0,0); stroke-width: 0.7; stroke-dasharray: none; stroke-linecap: butt; stroke-dashoffset: 0; stroke-linejoin: miter; stroke-miterlimit: 4; fill: rgb(255,255,255); fill-opacity: 0; fill-rule: nonzero; opacity: 1;" vector-effect="non-scaling-stroke"  transform=" translate(0, 0)" d="M 0 0" stroke-linecap="round" />
</g>
<g transform="matrix(1.04 0 0 1 173.81 59.97)" id="2RWq0jdzmBQaU-Lk2Q6Ae"  >
<path style="stroke: rgb(178,155,137); stroke-width: 0.5; stroke-dasharray: none; stroke-linecap: butt; stroke-dashoffset: 0; stroke-linejoin: miter; stroke-miterlimit: 4; fill: rgb(255,255,255); fill-opacity: 0; fill-rule: nonzero; opacity: 1;" vector-effect="non-scaling-stroke"  transform=" translate(0, 0)" d="M -5.9761 -2.93009 L -5.51117 -1.7345499999999998 C -4.91212 -0.1941299999999999 -3.7946799999999996 1.0661800000000003 -2.36794 1.8105600000000004 L -0.99082 2.5290600000000003 L -0.99082 2.5290600000000003 C -0.34495 2.8660400000000004 0.38267000000000007 2.9949800000000004 1.09921 2.8994400000000002 L 5.97609 2.2491900000000005" stroke-linecap="round" />
</g>
<g transform="matrix(1 0 0 1 90.64 102.74)" id="BO2pMXfdLFBPD6iWXMQv-"  >
<path style="stroke: rgb(223,220,173); stroke-width: 0.5; stroke-dasharray: none; stroke-linecap: butt; stroke-dashoffset: 0; stroke-linejoin: miter; stroke-miterlimit: 4; fill: rgb(255,252,202); fill-rule: nonzero; opacity: 1;" vector-effect="non-scaling-stroke"  transform=" translate(-16.93, -12.65)" d="M 15.51675 0.11799 C 19.70564 -0.32228 23.66733 0.49143 26.82928 2.19434 C 30.69546 4.27653 33.36598 7.68811 33.794200000000004 11.7623 C 34.384220000000006 17.37595 30.548720000000003 22.64424 24.60309 25.29177 L 7.8502800000000015 25.29177 C 3.5416800000000013 23.26617 0.5177700000000014 19.666159999999998 0.0597000000000012 15.30794 C -0.7187299999999988 7.90169 6.206030000000001 1.0965799999999994 15.516750000000002 0.1179900000000007 z" stroke-linecap="round" />
</g>
<g transform="matrix(1 0 0 1 153.6 101.88)" id="17BTxKvDFLO50MqFMuOUe"  >
<path style="stroke: rgb(223,220,173); stroke-width: 0.5; stroke-dasharray: none; stroke-linecap: butt; stroke-dashoffset: 0; stroke-linejoin: miter; stroke-miterlimit: 4; fill: rgb(255,252,202); fill-rule: nonzero; opacity: 1;" vector-effect="non-scaling-stroke"  transform=" translate(-16.68, -13.35)" d="M 17.85758 0.07964 C 27.04265 0.8832300000000001 33.970439999999996 7.5564 33.32139 14.975119999999999 C 32.80596 20.86654 27.66648 25.4652 20.97221 26.706509999999998 L 13.616230000000002 26.706509999999998 C 5.390100000000002 25.219659999999998 -0.5615899999999989 18.964129999999997 0.042130000000002 12.063559999999997 C 0.691180000000002 4.644849999999997 8.672510000000003 -0.7239500000000021 17.85758 0.07963999999999771 z" stroke-linecap="round" />
</g>
<g transform="matrix(1 0 0 1 23.05 25.93)" id="ikDwkLCKpM5OSnnEUO3vU"  >
<path style="stroke: rgb(216,191,170); stroke-width: 1; stroke-dasharray: none; stroke-linecap: butt; stroke-dashoffset: 0; stroke-linejoin: miter; stroke-miterlimit: 4; fill: rgb(255,255,255); fill-opacity: 0; fill-rule: nonzero; opacity: 1;" vector-effect="non-scaling-stroke"  transform=" translate(0, 0)" d="M 0 0" stroke-linecap="round" />
</g>
<g transform="matrix(0.99 -0.16 0.16 0.99 187.06 98.85)" id="N86J-pCEVUdid0zm7LKfZ"  >
<path style="stroke: rgb(159,159,159); stroke-width: 0.5; stroke-dasharray: none; stroke-linecap: butt; stroke-dashoffset: 0; stroke-linejoin: miter; stroke-miterlimit: 4; fill: rgb(255,255,255); fill-opacity: 0; fill-rule: nonzero; opacity: 1;" vector-effect="non-scaling-stroke"  transform=" translate(0, 0)" d="M -4.61878 -4.61095 L -2.17945 -2.3583 C -1.8417000000000001 -2.0463999999999998 -1.3988500000000001 -1.8731999999999998 -0.9391200000000002 -1.8731999999999998 L 0.21401999999999988 -1.8731999999999998 L 0.21401999999999988 -1.8731999999999998 C 1.4908199999999998 -1.8731999999999998 2.6969399999999997 -1.2869899999999999 3.4857699999999996 -0.28300999999999976 L 3.7026299999999996 -0.007009999999999739 L 3.7026299999999996 -0.007009999999999739 C 4.74039 1.3137700000000003 4.9112599999999995 3.1189000000000004 4.1397699999999995 4.610950000000001 L 4.1397699999999995 4.610950000000001 L 2.2363299999999997 2.1613800000000007" stroke-linecap="round" />
</g>
<g transform="matrix(-0.98 -0.17 -0.17 0.98 63.63 101.88)" id="gvW_9N4B_U-SMp7Hma4ha"  >
<path style="stroke: rgb(159,159,159); stroke-width: 0.5; stroke-dasharray: none; stroke-linecap: butt; stroke-dashoffset: 0; stroke-linejoin: miter; stroke-miterlimit: 4; fill: rgb(255,255,255); fill-opacity: 0; fill-rule: nonzero; opacity: 1;" vector-effect="non-scaling-stroke"  transform=" translate(0, 0)" d="M -1.56665 -3.91477 L 1.5186799999999998 -2.7247 L 1.7692299999999999 -0.11220000000000008 L 1.7692299999999999 -0.11220000000000008 C 1.7785099999999998 -0.015390000000000084 1.7976599999999998 0.08021999999999993 1.82638 0.17314999999999992 L 2.04677 0.88628 L 2.04677 0.88628 C 2.21771 1.43942 2.15382 2.0385 1.87006 2.54314 L 1.0988000000000002 3.91477 L -0.05960999999999972 0.6955499999999999 L -2.1408199999999997 -0.6585100000000002" stroke-linecap="round" />
</g>
<g transform="matrix(-0.64 -0.77 -0.77 0.64 78.24 75.67)" id="q7Bj9CJzRCAoYid95gIww"  >
<path style="stroke: rgb(159,159,159); stroke-width: 0.5; stroke-dasharray: none; stroke-linecap: butt; stroke-dashoffset: 0; stroke-linejoin: miter; stroke-miterlimit: 4; fill: rgb(255,255,255); fill-opacity: 0; fill-rule: nonzero; opacity: 1;" vector-effect="non-scaling-stroke"  transform=" translate(0, 0)" d="M -2.18277 -0.55915 L -1.66751 0.6282999999999999 C -1.2934700000000001 1.49031 -1.18378 2.4439599999999997 -1.35234 3.3683699999999996 L -1.5825300000000002 4.630739999999999 L -0.1707700000000003 3.7010899999999993 L -0.1707700000000003 3.7010899999999993 C 0.6325099999999997 3.172119999999999 1.2706099999999998 2.4276599999999995 1.6704799999999997 1.5529299999999995 L 1.8472099999999998 1.1663199999999994 L 1.8472099999999998 1.1663199999999994 C 2.3060799999999997 0.16251999999999933 2.29378 -0.9935500000000008 1.8136599999999998 -1.9873600000000007 L 1.4938999999999998 -2.6492300000000006 L 1.4938999999999998 -2.6492300000000006 C 1.2082199999999998 -3.2405500000000007 0.7787599999999998 -3.7507600000000005 0.24483999999999972 -4.13313 L -0.4500000000000003 -4.63074" stroke-linecap="round" />
</g>
<g transform="matrix(1 0 0 1 120 75.12)" id="rGr_j8QJNjN34zG-76mGN"  >
<path style="stroke: rgb(159,159,159); stroke-width: 0.5; stroke-dasharray: none; stroke-linecap: butt; stroke-dashoffset: 0; stroke-linejoin: miter; stroke-miterlimit: 4; fill: rgb(255,255,255); fill-opacity: 0; fill-rule: nonzero; opacity: 1;" vector-effect="non-scaling-stroke"  transform=" translate(0, 0)" d="M -5.48136 -2.69512 L -6.967179999999999 -1.7767000000000002 C -7.493129999999999 -1.4516000000000002 -7.866089999999999 -0.9284700000000001 -8.00197 -0.32527000000000017 L -8.53017 2.01952 L -6.09326 0.1520299999999999 L -5.32277 -0.5140900000000002 L -5.32277 -0.5140900000000002 C -4.87207 -0.9037300000000001 -4.31885 -1.15558 -3.7290300000000003 -1.2396100000000003 L -1.8702800000000004 -1.5044300000000004 L -1.8702800000000004 -1.5044300000000004 C -1.8582600000000005 -1.5054500000000004 -1.8472200000000003 -1.4977300000000004 -1.8440700000000003 -1.4860800000000003 C -1.6528600000000004 -0.7803600000000003 -2.1284500000000004 0.0025599999999996736 -0.6866700000000003 0.40325999999999973 C 0.7663799999999996 0.8070899999999998 1.5194499999999995 2.0195099999999995 1.5194499999999995 2.0195099999999995 C 1.5194499999999995 2.0195099999999995 2.95761 1.0610699999999995 2.3936199999999994 0.4032599999999995 C 1.6219499999999996 -0.4967700000000005 0.0669799999999996 -1.0473300000000005 0.8990999999999993 -1.1109000000000004 C 2.3393999999999995 -1.2209300000000005 4.51671 -0.3733000000000004 4.51671 -0.3733000000000004 L 6.5344 0.7546099999999996 L 8.530149999999999 3.4632899999999998 L 8.22327 1.1739799999999998 L 8.22327 1.1739799999999998 C 8.035979999999999 -0.22316000000000025 7.06591 -1.3900100000000002 5.726459999999999 -1.8292900000000003 L 5.726459999999999 -1.8292900000000003 L 5.726459999999999 -1.8292900000000003 C 5.517339999999999 -1.8978700000000004 5.315619999999999 -1.9872700000000003 5.124359999999999 -2.09615 L 2.7226399999999993 -3.4633000000000003" stroke-linecap="round" />
</g>
</svg>